<svg width="63" height="63" viewBox="0 0 63 63" fill="none" xmlns="http://www.w3.org/2000/svg">
<path d="M0 0H63L31.5 31.5L0 63V0Z" fill="#0F0F0F"/>
<path d="M13.4988 26.385L20.4285 33.3146L19.1118 34.6313L11.4496 33.8789L15.6569 38.0862L14.073 39.6701L7.14333 32.7405L8.46986 31.4139L16.1222 32.1762L11.9149 27.9689L13.4988 26.385ZM27.1365 24.0327L28.4235 25.3196L23.0579 30.6852L16.1283 23.7555L21.3651 18.5187L22.6521 19.8056L19.009 23.4486L20.5138 24.9533L23.7311 21.736L24.9784 22.9833L21.7611 26.2007L23.3648 27.8044L27.1365 24.0327ZM34.1368 5.74701L38.7994 14.9436L37.0769 16.6662L30.86 13.4983L33.9784 19.7647L32.2658 21.4773L23.0592 16.8245L24.7224 15.1614L31.157 18.4679L27.9199 11.9639L29.4048 10.479L35.8989 13.8052L32.6024 7.28143L34.1368 5.74701Z" fill="white"/>
</svg>
